<svg width="22" height="24" viewBox="0 0 22 24" fill="none" xmlns="http://www.w3.org/2000/svg">
<path d="M16.5554 15.3505L13.069 11.82L16.5527 8.27208C19.0409 9.66066 20.9514 10.7216 21.3185 10.9162C22.5041 11.5615 21.9016 12.3923 21.3185 12.7063C21.1924 12.7698 20.1402 13.3553 18.5793 14.2238L18.578 14.2246C18.3267 14.3644 18.0623 14.5116 17.7865 14.6652C17.3973 14.882 16.9853 15.1114 16.5554 15.3505Z" fill="#FF553E"/>
<path d="M15.9206 15.7035L12.5788 12.3193L1.41158 23.6923C1.54615 23.6513 1.68897 23.5891 1.84148 23.5043C1.95572 23.441 2.23359 23.2873 2.64203 23.0614L2.66635 23.0479C4.96477 21.7767 11.2755 18.2862 15.9206 15.7035Z" fill="#FF553E"/>
<path d="M0.499208 23.6229C0.171546 23.3993 0 22.9316 0 22.3411V1.39114C0 0.738086 0.227391 0.33626 0.542315 0.130248L12.0871 11.8214L0.499208 23.6229Z" fill="#FF553E"/>
<path d="M1.39699 0L12.5773 11.3221L15.9064 7.93159C13.8421 6.79151 2.58686 0.575944 1.84128 0.174435C1.69964 0.0891815 1.54876 0.0318221 1.39699 0Z" fill="#FF553E"/>
</svg>
